<svg id="Layer_1" enable-background="new 0 0 512 512" height="512" viewBox="0 0 512 512" width="512" xmlns="http://www.w3.org/2000/svg"><g><g><g fill="#b77e5a"><path d="m114.391 350.776c-3.126.833-6.411 1.277-9.8 1.277-20.965 0-37.96-16.995-37.96-37.96s15.955-37.96 40.89-37.96z"/><path d="m398.616 350.776c3.126.833 6.411 1.277 9.8 1.277 20.965 0 37.96-16.995 37.96-37.96s-15.955-37.96-40.89-37.96z"/></g><g><path d="m398.824 352.949c.29 3.55.44 7.16.44 10.77 0 34-28.95 74.62-86.07 120.751-16.01 13-36.04 20.08-56.69 20.03-.37 0-.73 0-1.1-.01-20.26-.19-39.87-7.25-55.59-20.02-57.12-46.13-86.07-86.75-86.07-120.751 0-3.61.15-7.22.44-10.77.37-3.69 1.95-11.56 2.11-20.6 0-42.9-38.85-121.52 23.62-180.661 29.43-27.87 66.28-38.85 115.49-39.01h1.1c49.76 0 86.94 10.93 116.59 39.01 62.47 59.14 23.62 137.761 23.62 180.661.16 9.04 1.74 16.91 2.11 20.6z" fill="#feaf82"/><path d="m398.824 352.949c.29 3.55.44 7.16.44 10.77 0 34-28.95 74.62-86.07 120.751-16.01 13-36.04 20.08-56.69 20.03-.37 0-.73 0-1.1-.01 16.66-.19 32.76-7.25 45.68-20.02 46.93-46.13 70.71-86.75 70.71-120.751 0-3.61-.12-7.22-.36-10.77-.3-3.69-1.6-11.56-1.74-20.6 0-42.9 31.92-121.52-19.4-180.661-24.18-27.87-54.46-38.85-94.89-39.01h1.1c49.76 0 86.94 10.93 116.59 39.01 62.47 59.14 23.62 137.761 23.62 180.661.16 9.04 1.74 16.91 2.11 20.6z" fill="#df9f7a"/></g><g fill="#f55c80"><circle cx="78.546" cy="62.52" r="15.001"/><circle cx="433.454" cy="62.52" r="15.001"/><circle cx="307.687" cy="233.384" r="15.001"/><circle cx="205.32" cy="233.384" r="15.001"/></g></g><g><path d="m256.503 31.12v111.791c0 12.94-10.5 23.44-23.44 23.44h-82.92c-11.77 0-21.52-8.69-23.19-20-.16-1.12-.25-2.27-.25-3.44v-63.571c0-39.68 32.16-71.84 71.84-71.84h34.34c13.05 0 23.62 10.57 23.62 23.62z" fill="#f55c80"/><path d="m256.503 31.12v111.791c0 12.94-10.5 23.44-23.44 23.44h-82.92c-11.77 0-21.52-8.69-23.19-20h86.11c12.94 0 23.44-10.5 23.44-23.44v-91.791c0-13.05-10.57-23.62-23.62-23.62h20c13.05 0 23.62 10.57 23.62 23.62z" fill="#ce547e"/></g><g><path d="m256.505 31.115v111.791c0 12.94 10.5 23.44 23.44 23.44h82.92c11.77 0 21.52-8.69 23.19-20 .16-1.12.25-2.27.25-3.44v-63.571c0-39.68-32.16-71.84-71.84-71.84h-34.34c-13.05 0-23.62 10.57-23.62 23.62z" fill="#f77692"/><path d="m256.505 31.115v111.791c0 12.94 10.5 23.44 23.44 23.44h82.92c11.77 0 21.52-8.69 23.19-20h-86.11c-12.94 0-23.44-10.5-23.44-23.44v-91.791c0-13.05 10.57-23.62 23.62-23.62h-20c-13.05 0-23.62 10.57-23.62 23.62z" fill="#f55c80"/></g></g><g><path d="m179.493 457.104c-38.653-35.677-58.252-67.094-58.252-93.379 0-3.384.139-6.781.413-10.097.087-.856.271-2.125.483-3.589.609-4.202 1.53-10.551 1.658-17.547.001-.046.001-.092.001-.138 0-11.328-2.503-24.781-5.154-39.025-3.876-20.827-8.384-45.056-6.132-69.135l15.354 11.418c1.345 1 2.914 1.482 4.47 1.482 2.291 0 4.552-1.046 6.024-3.025 2.472-3.324 1.781-8.022-1.543-10.494l-21.563-16.034c1.533-6.319 3.662-12.57 6.526-18.687 1.756-3.751.139-8.216-3.612-9.973-3.75-1.756-8.215-.139-9.973 3.612-2.389 5.103-4.332 10.251-5.89 15.418l-16.257-12.091v-102.084c8.73-3.096 15-11.437 15-21.216 0-12.407-10.093-22.501-22.5-22.501s-22.5 10.094-22.5 22.501c0 9.779 6.27 18.12 15 21.216v105.853c0 2.372 1.122 4.603 3.024 6.019l24.578 18.277c-3.039 18.902-1.812 37.736.67 55.329-23.718 3.346-40.187 21.196-40.187 44.892 0 25.067 20.394 45.46 45.46 45.46.572 0 1.143-.011 1.713-.032-.042 1.396-.063 2.794-.063 4.19 0 30.643 21.223 65.769 63.079 104.402 1.442 1.331 3.266 1.989 5.085 1.989 2.021 0 4.035-.812 5.513-2.413 2.809-3.044 2.619-7.789-.425-10.598zm-100.947-402.085c4.136 0 7.5 3.365 7.5 7.501s-3.364 7.501-7.5 7.501-7.5-3.365-7.5-7.501 3.364-7.501 7.5-7.501zm-4.415 259.087c0-16.105 11.072-27.848 27.566-30.076.725 4.115 1.473 8.134 2.2 12.042 2.514 13.513 4.89 26.278 4.901 36.212-.086 4.439-.544 8.611-1.013 12.116-1.057.11-2.123.166-3.193.166-16.797 0-30.461-13.664-30.461-30.46z"/><path d="m413.688 269.213c2.512-17.8 3.738-36.87.561-55.996l23.681-17.61c1.903-1.416 3.024-3.647 3.024-6.019v-105.852c8.73-3.096 15-11.437 15-21.216 0-12.407-10.093-22.501-22.5-22.501s-22.5 10.094-22.5 22.501c0 9.779 6.27 18.12 15 21.216v102.084l-15.437 11.479c-1.526-4.963-3.41-9.906-5.705-14.809-1.756-3.751-6.22-5.368-9.973-3.612-3.751 1.757-5.369 6.222-3.612 9.973 2.768 5.913 4.85 11.951 6.371 18.055l-22.414 16.667c-3.324 2.472-4.015 7.17-1.543 10.494 1.472 1.979 3.733 3.025 6.024 3.025 1.556 0 3.125-.482 4.47-1.482l16.294-12.116c2.407 24.309-2.152 48.806-6.065 69.834-2.651 14.244-5.154 27.697-5.154 39.025 0 .046 0 .092.001.138.128 6.997 1.049 13.346 1.658 17.548.212 1.465.396 2.735.483 3.591.274 3.311.413 6.707.413 10.094 0 31.619-28.021 70.282-83.296 114.925-14.592 11.839-32.957 18.351-51.773 18.351-.07 0-.141 0-.211 0-18.859.008-37.3-6.468-51.946-18.351-3.216-2.609-7.94-2.118-10.549 1.099-2.61 3.216-2.118 7.939 1.099 10.549 17.255 14.001 38.975 21.703 61.146 21.703h.499c22.208-.001 43.93-7.703 61.173-21.692 58.962-47.621 88.859-90.209 88.859-126.584 0-1.396-.021-2.795-.063-4.19.57.021 1.142.032 1.714.032 25.067 0 45.46-20.393 45.46-45.46-.001-23.696-16.47-41.546-40.189-44.893zm19.766-214.194c4.136 0 7.5 3.365 7.5 7.501s-3.364 7.501-7.5 7.501-7.5-3.365-7.5-7.501 3.365-7.501 7.5-7.501zm-25.038 289.547c-1.07 0-2.136-.056-3.193-.166-.469-3.505-.927-7.675-1.013-12.114.011-9.934 2.386-22.7 4.901-36.214.727-3.908 1.475-7.927 2.2-12.042 16.494 2.229 27.565 13.972 27.565 30.076 0 16.796-13.664 30.46-30.46 30.46z"/><path d="m249.438 380.581c0-3.618 2.944-6.562 6.562-6.562s6.562 2.943 6.562 6.562c0 4.142 3.358 7.5 7.5 7.5s7.5-3.358 7.5-7.5c0-11.889-9.673-21.562-21.562-21.562s-21.562 9.672-21.562 21.562c0 4.142 3.358 7.5 7.5 7.5s7.5-3.358 7.5-7.5z"/><path d="m210.963 404.297c-2.031-3.609-6.604-4.89-10.214-2.857-3.609 2.031-4.889 6.604-2.857 10.214 11.801 20.967 34.067 33.992 58.11 33.992 24.042 0 46.309-13.025 58.109-33.992 2.032-3.61.752-8.183-2.857-10.214-3.609-2.032-8.182-.752-10.214 2.857-9.148 16.253-26.405 26.349-45.038 26.349-18.634 0-35.891-10.096-45.039-26.349z"/><path d="m223.954 330.53c1.377 2.447 3.922 3.823 6.543 3.823 1.246 0 2.509-.311 3.671-.965 3.61-2.032 4.889-6.604 2.858-10.214-7.288-12.95-21.041-20.995-35.892-20.995s-28.604 8.044-35.892 20.994c-2.031 3.61-.752 8.183 2.857 10.215 3.609 2.031 8.183.752 10.215-2.857 4.635-8.235 13.379-13.352 22.82-13.352s18.186 5.115 22.82 13.351z"/><path d="m333.685 330.53c2.032 3.609 6.605 4.888 10.215 2.857 3.609-2.032 4.889-6.605 2.857-10.215-7.289-12.95-21.042-20.994-35.892-20.994s-28.604 8.044-35.892 20.995c-2.031 3.61-.752 8.183 2.858 10.214 1.163.654 2.425.965 3.671.965 2.621 0 5.166-1.376 6.543-3.823 4.635-8.235 13.378-13.351 22.819-13.351s18.187 5.117 22.821 13.352z"/><path d="m150.148 173.851h47.672v38.317c-8.73 3.096-15 11.437-15 21.216 0 12.407 10.093 22.501 22.5 22.501s22.5-10.094 22.5-22.501c0-9.779-6.27-18.12-15-21.216v-38.317h20.238c9.362 0 17.766-4.179 23.445-10.77 5.679 6.59 14.083 10.77 23.445 10.77h20.238v38.317c-8.73 3.096-15 11.437-15 21.216 0 12.407 10.093 22.501 22.5 22.501s22.5-10.094 22.5-22.501c0-9.779-6.27-18.12-15-21.216v-38.317h47.673c17.063 0 30.945-13.882 30.945-30.945v-63.564c.001-43.749-35.591-79.342-79.34-79.342h-34.344c-9.437 0-17.905 4.223-23.616 10.877-5.711-6.654-14.18-10.877-23.617-10.877h-34.344c-43.749 0-79.341 35.593-79.341 79.342v63.564c0 17.063 13.882 30.945 30.946 30.945zm55.172 67.034c-4.136 0-7.5-3.365-7.5-7.501s3.364-7.501 7.5-7.501 7.5 3.365 7.5 7.501-3.364 7.501-7.5 7.501zm102.367 0c-4.136 0-7.5-3.365-7.5-7.501s3.364-7.501 7.5-7.501 7.5 3.365 7.5 7.501-3.364 7.501-7.5 7.501zm-173.485-161.543c0-35.478 28.863-64.342 64.341-64.342h34.344c8.887 0 16.116 7.229 16.116 16.116v15.286c0 4.142 3.358 7.5 7.5 7.5s7.5-3.358 7.5-7.5v-15.286c0-8.887 7.229-16.116 16.116-16.116h34.344c35.478 0 64.341 28.864 64.341 64.342v63.564c0 8.792-7.153 15.945-15.945 15.945h-82.911c-8.792 0-15.945-7.153-15.945-15.945v-61.36c0-4.142-3.358-7.5-7.5-7.5s-7.5 3.358-7.5 7.5v61.36c0 8.792-7.153 15.945-15.945 15.945h-82.911c-8.792 0-15.945-7.153-15.945-15.945z"/><path d="m207.577 90.641h-19c-4.142 0-7.5 3.358-7.5 7.5s3.358 7.5 7.5 7.5h19c4.71 0 8.542 3.832 8.542 8.542 0 4.142 3.358 7.5 7.5 7.5s7.5-3.358 7.5-7.5c0-12.981-10.561-23.542-23.542-23.542z"/><path d="m187.577 47.046h20c4.71 0 8.542 3.832 8.542 8.542v11.769c0 4.142 3.358 7.5 7.5 7.5s7.5-3.358 7.5-7.5v-11.77c0-12.981-10.561-23.542-23.542-23.542h-20c-4.142 0-7.5 3.358-7.5 7.5s3.358 7.501 7.5 7.501z"/><path d="m175.628 143.94h29.97c4.142 0 7.5-3.358 7.5-7.5s-3.358-7.5-7.5-7.5h-29.97c-4.71 0-8.542-3.832-8.542-8.542v-2c0-4.142-3.358-7.5-7.5-7.5s-7.5 3.358-7.5 7.5v2c.001 12.981 10.561 23.542 23.542 23.542z"/><path d="m159.587 95.898c4.142 0 7.5-3.358 7.5-7.5v-4c0-4.71 3.832-8.542 8.542-8.542h17.871c4.142 0 7.5-3.358 7.5-7.5s-3.358-7.5-7.5-7.5h-17.871c-12.981 0-23.542 10.561-23.542 23.542v4c0 4.142 3.358 7.5 7.5 7.5z"/><path d="m289.388 121.683c4.142 0 7.5-3.358 7.5-7.5 0-4.71 3.832-8.542 8.542-8.542h19c4.142 0 7.5-3.358 7.5-7.5s-3.358-7.5-7.5-7.5h-19c-12.981 0-23.542 10.561-23.542 23.542 0 4.142 3.358 7.5 7.5 7.5z"/><path d="m289.388 74.856c4.142 0 7.5-3.358 7.5-7.5v-11.769c0-4.71 3.832-8.542 8.542-8.542h20c4.142 0 7.5-3.358 7.5-7.5s-3.358-7.5-7.5-7.5h-20c-12.981 0-23.542 10.561-23.542 23.542v11.769c0 4.143 3.358 7.5 7.5 7.5z"/><path d="m353.421 110.898c-4.142 0-7.5 3.358-7.5 7.5v2c0 4.71-3.832 8.542-8.542 8.542h-29.97c-4.142 0-7.5 3.358-7.5 7.5s3.358 7.5 7.5 7.5h29.97c12.981 0 23.542-10.561 23.542-23.542v-2c0-4.142-3.358-7.5-7.5-7.5z"/><path d="m312.009 68.356c0 4.142 3.358 7.5 7.5 7.5h17.871c4.71 0 8.542 3.832 8.542 8.542v4c0 4.142 3.358 7.5 7.5 7.5s7.5-3.358 7.5-7.5v-4c0-12.981-10.561-23.542-23.542-23.542h-17.871c-4.143 0-7.5 3.358-7.5 7.5z"/></g></svg>